<mxfile host="app.diagrams.net" modified="2023-05-01T00:15:13.150Z" agent="Mozilla/5.0 (Windows NT 10.0; Win64; x64) AppleWebKit/537.36 (KHTML, like Gecko) Chrome/112.0.0.0 Safari/537.36" etag="8QBkA3HbUiD1tE7Ucw83" version="21.2.3" type="device">
  <diagram name="Halaman-1" id="hdhd2-XFXEPui8kANn3u">
    <mxGraphModel dx="2015" dy="1232" grid="1" gridSize="10" guides="1" tooltips="1" connect="1" arrows="1" fold="1" page="0" pageScale="1" pageWidth="827" pageHeight="1169" background="none" math="0" shadow="0">
      <root>
        <mxCell id="0" />
        <mxCell id="1" parent="0" />
        <mxCell id="k7nBBv1MeW0qWi0kyBfL-1" value="{abstract} Dog" style="swimlane;fontStyle=0;childLayout=stackLayout;horizontal=1;startSize=30;horizontalStack=0;resizeParent=1;resizeParentMax=0;resizeLast=0;collapsible=1;marginBottom=0;whiteSpace=wrap;html=1;fontSize=16;" parent="1" vertex="1">
          <mxGeometry x="-212" y="-369" width="215" height="154" as="geometry" />
        </mxCell>
        <mxCell id="k7nBBv1MeW0qWi0kyBfL-2" value="+ name : String" style="text;strokeColor=none;fillColor=none;align=left;verticalAlign=middle;spacingLeft=4;spacingRight=4;overflow=hidden;points=[[0,0.5],[1,0.5]];portConstraint=eastwest;rotatable=0;whiteSpace=wrap;html=1;fontSize=16;" parent="k7nBBv1MeW0qWi0kyBfL-1" vertex="1">
          <mxGeometry y="30" width="215" height="30" as="geometry" />
        </mxCell>
        <mxCell id="k7nBBv1MeW0qWi0kyBfL-3" value="+ position : int" style="text;strokeColor=none;fillColor=none;align=left;verticalAlign=middle;spacingLeft=4;spacingRight=4;overflow=hidden;points=[[0,0.5],[1,0.5]];portConstraint=eastwest;rotatable=0;whiteSpace=wrap;html=1;fontSize=16;" parent="k7nBBv1MeW0qWi0kyBfL-1" vertex="1">
          <mxGeometry y="60" width="215" height="30" as="geometry" />
        </mxCell>
        <mxCell id="k7nBBv1MeW0qWi0kyBfL-4" value="+ averageLength : int" style="text;strokeColor=none;fillColor=none;align=left;verticalAlign=middle;spacingLeft=4;spacingRight=4;overflow=hidden;points=[[0,0.5],[1,0.5]];portConstraint=eastwest;rotatable=0;whiteSpace=wrap;html=1;fontSize=16;" parent="k7nBBv1MeW0qWi0kyBfL-1" vertex="1">
          <mxGeometry y="90" width="215" height="30" as="geometry" />
        </mxCell>
        <mxCell id="k7nBBv1MeW0qWi0kyBfL-14" value="&amp;nbsp;+ describe() : void" style="rounded=0;whiteSpace=wrap;html=1;fontSize=16;align=left;" parent="k7nBBv1MeW0qWi0kyBfL-1" vertex="1">
          <mxGeometry y="120" width="215" height="34" as="geometry" />
        </mxCell>
        <mxCell id="k7nBBv1MeW0qWi0kyBfL-10" value="{interface} Action" style="swimlane;fontStyle=0;childLayout=stackLayout;horizontal=1;startSize=26;fillColor=none;horizontalStack=0;resizeParent=1;resizeParentMax=0;resizeLast=0;collapsible=1;marginBottom=0;html=1;fontSize=16;" parent="1" vertex="1">
          <mxGeometry x="133" y="-369" width="179" height="61" as="geometry" />
        </mxCell>
        <mxCell id="k7nBBv1MeW0qWi0kyBfL-20" value="&amp;nbsp;&amp;nbsp;+ move() : void" style="rounded=0;whiteSpace=wrap;html=1;fontSize=16;align=left;" parent="k7nBBv1MeW0qWi0kyBfL-10" vertex="1">
          <mxGeometry y="26" width="179" height="35" as="geometry" />
        </mxCell>
        <mxCell id="k7nBBv1MeW0qWi0kyBfL-15" value="Pitbull" style="swimlane;fontStyle=0;childLayout=stackLayout;horizontal=1;startSize=30;horizontalStack=0;resizeParent=1;resizeParentMax=0;resizeLast=0;collapsible=1;marginBottom=0;whiteSpace=wrap;html=1;fontSize=16;" parent="1" vertex="1">
          <mxGeometry x="-315" y="-86" width="146" height="78" as="geometry" />
        </mxCell>
        <mxCell id="k7nBBv1MeW0qWi0kyBfL-22" value="Siberian Husky" style="swimlane;fontStyle=0;childLayout=stackLayout;horizontal=1;startSize=30;horizontalStack=0;resizeParent=1;resizeParentMax=0;resizeLast=0;collapsible=1;marginBottom=0;whiteSpace=wrap;html=1;fontSize=16;" parent="1" vertex="1">
          <mxGeometry x="-108.5" y="-86" width="152" height="79" as="geometry" />
        </mxCell>
        <mxCell id="k7nBBv1MeW0qWi0kyBfL-26" value="Bulldog" style="swimlane;fontStyle=0;childLayout=stackLayout;horizontal=1;startSize=30;horizontalStack=0;resizeParent=1;resizeParentMax=0;resizeLast=0;collapsible=1;marginBottom=0;whiteSpace=wrap;html=1;fontSize=16;" parent="1" vertex="1">
          <mxGeometry x="108" y="-86" width="152" height="79" as="geometry" />
        </mxCell>
        <mxCell id="k7nBBv1MeW0qWi0kyBfL-27" value="German Shepherd" style="swimlane;fontStyle=0;childLayout=stackLayout;horizontal=1;startSize=30;horizontalStack=0;resizeParent=1;resizeParentMax=0;resizeLast=0;collapsible=1;marginBottom=0;whiteSpace=wrap;html=1;fontSize=16;" parent="1" vertex="1">
          <mxGeometry x="325" y="-85" width="176" height="77" as="geometry" />
        </mxCell>
        <mxCell id="k7nBBv1MeW0qWi0kyBfL-45" value="" style="edgeStyle=elbowEdgeStyle;elbow=vertical;endArrow=classic;html=1;curved=0;rounded=0;endSize=8;startSize=8;fontSize=12;entryX=0.5;entryY=1;entryDx=0;entryDy=0;" parent="1" target="k7nBBv1MeW0qWi0kyBfL-14" edge="1">
          <mxGeometry width="50" height="50" relative="1" as="geometry">
            <mxPoint x="-249" y="-87" as="sourcePoint" />
            <mxPoint x="-199" y="-137" as="targetPoint" />
            <Array as="points">
              <mxPoint x="-191" y="-127" />
            </Array>
          </mxGeometry>
        </mxCell>
        <mxCell id="k7nBBv1MeW0qWi0kyBfL-47" value="" style="edgeStyle=elbowEdgeStyle;elbow=vertical;endArrow=classic;html=1;curved=0;rounded=0;endSize=8;startSize=8;fontSize=12;exitX=0.5;exitY=0;exitDx=0;exitDy=0;entryX=0.5;entryY=1;entryDx=0;entryDy=0;" parent="1" source="k7nBBv1MeW0qWi0kyBfL-22" target="k7nBBv1MeW0qWi0kyBfL-1" edge="1">
          <mxGeometry width="50" height="50" relative="1" as="geometry">
            <mxPoint x="-38" y="-103" as="sourcePoint" />
            <mxPoint x="12" y="-153" as="targetPoint" />
            <Array as="points">
              <mxPoint x="-23" y="-127" />
              <mxPoint x="-63" y="-127" />
            </Array>
          </mxGeometry>
        </mxCell>
        <mxCell id="k7nBBv1MeW0qWi0kyBfL-50" value="" style="edgeStyle=elbowEdgeStyle;elbow=vertical;endArrow=classic;html=1;curved=0;rounded=0;endSize=8;startSize=8;fontSize=12;exitX=0.5;exitY=0;exitDx=0;exitDy=0;entryX=0.5;entryY=1;entryDx=0;entryDy=0;" parent="1" source="k7nBBv1MeW0qWi0kyBfL-26" target="k7nBBv1MeW0qWi0kyBfL-1" edge="1">
          <mxGeometry width="50" height="50" relative="1" as="geometry">
            <mxPoint x="188" y="-88" as="sourcePoint" />
            <mxPoint x="238" y="-138" as="targetPoint" />
            <Array as="points">
              <mxPoint x="-71" y="-128" />
              <mxPoint x="-49" y="-128" />
              <mxPoint x="42" y="-128" />
            </Array>
          </mxGeometry>
        </mxCell>
        <mxCell id="k7nBBv1MeW0qWi0kyBfL-51" value="" style="edgeStyle=elbowEdgeStyle;elbow=vertical;endArrow=classic;html=1;curved=0;rounded=0;endSize=8;startSize=8;fontSize=12;entryX=0.5;entryY=1;entryDx=0;entryDy=0;" parent="1" target="k7nBBv1MeW0qWi0kyBfL-14" edge="1">
          <mxGeometry width="50" height="50" relative="1" as="geometry">
            <mxPoint x="417" y="-87" as="sourcePoint" />
            <mxPoint x="-82" y="-198" as="targetPoint" />
            <Array as="points">
              <mxPoint x="162" y="-128" />
            </Array>
          </mxGeometry>
        </mxCell>
        <mxCell id="k7nBBv1MeW0qWi0kyBfL-52" value="" style="edgeStyle=elbowEdgeStyle;elbow=vertical;endArrow=classic;html=1;curved=0;rounded=0;endSize=8;startSize=8;fontSize=12;entryX=0.5;entryY=1;entryDx=0;entryDy=0;" parent="1" target="k7nBBv1MeW0qWi0kyBfL-10" edge="1">
          <mxGeometry width="50" height="50" relative="1" as="geometry">
            <mxPoint x="-249" y="-87" as="sourcePoint" />
            <mxPoint x="138" y="-278" as="targetPoint" />
            <Array as="points">
              <mxPoint x="17" y="-127" />
            </Array>
          </mxGeometry>
        </mxCell>
        <mxCell id="k7nBBv1MeW0qWi0kyBfL-53" value="" style="edgeStyle=elbowEdgeStyle;elbow=vertical;endArrow=classic;html=1;curved=0;rounded=0;endSize=8;startSize=8;fontSize=12;entryX=0.5;entryY=1;entryDx=0;entryDy=0;" parent="1" target="k7nBBv1MeW0qWi0kyBfL-20" edge="1">
          <mxGeometry width="50" height="50" relative="1" as="geometry">
            <mxPoint x="-33" y="-86" as="sourcePoint" />
            <mxPoint x="17" y="-136" as="targetPoint" />
            <Array as="points">
              <mxPoint x="97" y="-128" />
            </Array>
          </mxGeometry>
        </mxCell>
        <mxCell id="k7nBBv1MeW0qWi0kyBfL-54" value="" style="edgeStyle=elbowEdgeStyle;elbow=vertical;endArrow=classic;html=1;curved=0;rounded=0;endSize=8;startSize=8;fontSize=12;entryX=0.5;entryY=1;entryDx=0;entryDy=0;" parent="1" target="k7nBBv1MeW0qWi0kyBfL-10" edge="1">
          <mxGeometry width="50" height="50" relative="1" as="geometry">
            <mxPoint x="183" y="-86" as="sourcePoint" />
            <mxPoint x="233" y="-136" as="targetPoint" />
            <Array as="points">
              <mxPoint x="223" y="-127" />
            </Array>
          </mxGeometry>
        </mxCell>
        <mxCell id="k7nBBv1MeW0qWi0kyBfL-55" value="" style="edgeStyle=elbowEdgeStyle;elbow=vertical;endArrow=classic;html=1;curved=0;rounded=0;endSize=8;startSize=8;fontSize=12;entryX=0.5;entryY=1;entryDx=0;entryDy=0;" parent="1" target="k7nBBv1MeW0qWi0kyBfL-10" edge="1">
          <mxGeometry width="50" height="50" relative="1" as="geometry">
            <mxPoint x="416" y="-85" as="sourcePoint" />
            <mxPoint x="466" y="-135" as="targetPoint" />
            <Array as="points">
              <mxPoint x="325" y="-128" />
            </Array>
          </mxGeometry>
        </mxCell>
        <mxCell id="k7nBBv1MeW0qWi0kyBfL-56" value="{abstract} Car" style="swimlane;fontStyle=0;childLayout=stackLayout;horizontal=1;startSize=30;horizontalStack=0;resizeParent=1;resizeParentMax=0;resizeLast=0;collapsible=1;marginBottom=0;whiteSpace=wrap;html=1;fontSize=16;" parent="1" vertex="1">
          <mxGeometry x="-218" y="144" width="244" height="192" as="geometry" />
        </mxCell>
        <mxCell id="k7nBBv1MeW0qWi0kyBfL-57" value="+ totalForwardGear : int" style="text;strokeColor=none;fillColor=none;align=left;verticalAlign=middle;spacingLeft=4;spacingRight=4;overflow=hidden;points=[[0,0.5],[1,0.5]];portConstraint=eastwest;rotatable=0;whiteSpace=wrap;html=1;fontSize=16;" parent="k7nBBv1MeW0qWi0kyBfL-56" vertex="1">
          <mxGeometry y="30" width="244" height="30" as="geometry" />
        </mxCell>
        <mxCell id="k7nBBv1MeW0qWi0kyBfL-58" value="+ color : String" style="text;strokeColor=none;fillColor=none;align=left;verticalAlign=middle;spacingLeft=4;spacingRight=4;overflow=hidden;points=[[0,0.5],[1,0.5]];portConstraint=eastwest;rotatable=0;whiteSpace=wrap;html=1;fontSize=16;" parent="k7nBBv1MeW0qWi0kyBfL-56" vertex="1">
          <mxGeometry y="60" width="244" height="30" as="geometry" />
        </mxCell>
        <mxCell id="k7nBBv1MeW0qWi0kyBfL-59" value="+ maxSpeed : int" style="text;strokeColor=none;fillColor=none;align=left;verticalAlign=middle;spacingLeft=4;spacingRight=4;overflow=hidden;points=[[0,0.5],[1,0.5]];portConstraint=eastwest;rotatable=0;whiteSpace=wrap;html=1;fontSize=16;" parent="k7nBBv1MeW0qWi0kyBfL-56" vertex="1">
          <mxGeometry y="90" width="244" height="30" as="geometry" />
        </mxCell>
        <mxCell id="k7nBBv1MeW0qWi0kyBfL-60" value="+ nameCar : String" style="text;strokeColor=none;fillColor=none;align=left;verticalAlign=middle;spacingLeft=4;spacingRight=4;overflow=hidden;points=[[0,0.5],[1,0.5]];portConstraint=eastwest;rotatable=0;whiteSpace=wrap;html=1;fontSize=16;" parent="k7nBBv1MeW0qWi0kyBfL-56" vertex="1">
          <mxGeometry y="120" width="244" height="30" as="geometry" />
        </mxCell>
        <mxCell id="k7nBBv1MeW0qWi0kyBfL-62" value="&amp;nbsp;+ move() : void" style="rounded=0;whiteSpace=wrap;html=1;fontSize=16;align=left;" parent="k7nBBv1MeW0qWi0kyBfL-56" vertex="1">
          <mxGeometry y="150" width="244" height="42" as="geometry" />
        </mxCell>
        <mxCell id="k7nBBv1MeW0qWi0kyBfL-64" value="{abstract} Smartphone" style="swimlane;fontStyle=0;childLayout=stackLayout;horizontal=1;startSize=30;horizontalStack=0;resizeParent=1;resizeParentMax=0;resizeLast=0;collapsible=1;marginBottom=0;whiteSpace=wrap;html=1;fontSize=16;" parent="1" vertex="1">
          <mxGeometry x="284" y="144" width="217" height="129" as="geometry" />
        </mxCell>
        <mxCell id="k7nBBv1MeW0qWi0kyBfL-65" value="+ price : int" style="text;strokeColor=none;fillColor=none;align=left;verticalAlign=middle;spacingLeft=4;spacingRight=4;overflow=hidden;points=[[0,0.5],[1,0.5]];portConstraint=eastwest;rotatable=0;whiteSpace=wrap;html=1;fontSize=16;" parent="k7nBBv1MeW0qWi0kyBfL-64" vertex="1">
          <mxGeometry y="30" width="217" height="30" as="geometry" />
        </mxCell>
        <mxCell id="k7nBBv1MeW0qWi0kyBfL-66" value="+ brand : String" style="text;strokeColor=none;fillColor=none;align=left;verticalAlign=middle;spacingLeft=4;spacingRight=4;overflow=hidden;points=[[0,0.5],[1,0.5]];portConstraint=eastwest;rotatable=0;whiteSpace=wrap;html=1;fontSize=16;" parent="k7nBBv1MeW0qWi0kyBfL-64" vertex="1">
          <mxGeometry y="60" width="217" height="30" as="geometry" />
        </mxCell>
        <mxCell id="k7nBBv1MeW0qWi0kyBfL-68" value="&amp;nbsp;+ move() : void" style="rounded=0;whiteSpace=wrap;html=1;fontSize=16;align=left;" parent="k7nBBv1MeW0qWi0kyBfL-64" vertex="1">
          <mxGeometry y="90" width="217" height="39" as="geometry" />
        </mxCell>
        <mxCell id="k7nBBv1MeW0qWi0kyBfL-69" value="Ferrari" style="swimlane;fontStyle=0;childLayout=stackLayout;horizontal=1;startSize=30;horizontalStack=0;resizeParent=1;resizeParentMax=0;resizeLast=0;collapsible=1;marginBottom=0;whiteSpace=wrap;html=1;fontSize=16;" parent="1" vertex="1">
          <mxGeometry x="-263" y="447" width="140" height="60" as="geometry" />
        </mxCell>
        <mxCell id="k7nBBv1MeW0qWi0kyBfL-73" value="BMW" style="swimlane;fontStyle=0;childLayout=stackLayout;horizontal=1;startSize=30;horizontalStack=0;resizeParent=1;resizeParentMax=0;resizeLast=0;collapsible=1;marginBottom=0;whiteSpace=wrap;html=1;fontSize=16;" parent="1" vertex="1">
          <mxGeometry x="-61" y="447" width="140" height="60" as="geometry" />
        </mxCell>
        <mxCell id="k7nBBv1MeW0qWi0kyBfL-74" value="Samsung" style="swimlane;fontStyle=0;childLayout=stackLayout;horizontal=1;startSize=30;horizontalStack=0;resizeParent=1;resizeParentMax=0;resizeLast=0;collapsible=1;marginBottom=0;whiteSpace=wrap;html=1;fontSize=16;" parent="1" vertex="1">
          <mxGeometry x="219" y="447" width="140" height="60" as="geometry" />
        </mxCell>
        <mxCell id="k7nBBv1MeW0qWi0kyBfL-75" value="Iphone" style="swimlane;fontStyle=0;childLayout=stackLayout;horizontal=1;startSize=30;horizontalStack=0;resizeParent=1;resizeParentMax=0;resizeLast=0;collapsible=1;marginBottom=0;whiteSpace=wrap;html=1;fontSize=16;" parent="1" vertex="1">
          <mxGeometry x="453" y="447" width="140" height="60" as="geometry" />
        </mxCell>
        <mxCell id="k7nBBv1MeW0qWi0kyBfL-81" value="" style="edgeStyle=elbowEdgeStyle;elbow=vertical;endArrow=classic;html=1;curved=0;rounded=0;endSize=8;startSize=8;fontSize=12;entryX=0.5;entryY=1;entryDx=0;entryDy=0;" parent="1" target="k7nBBv1MeW0qWi0kyBfL-68" edge="1">
          <mxGeometry width="50" height="50" relative="1" as="geometry">
            <mxPoint x="283" y="448" as="sourcePoint" />
            <mxPoint x="333" y="398" as="targetPoint" />
          </mxGeometry>
        </mxCell>
        <mxCell id="k7nBBv1MeW0qWi0kyBfL-82" value="" style="edgeStyle=elbowEdgeStyle;elbow=vertical;endArrow=classic;html=1;curved=0;rounded=0;endSize=8;startSize=8;fontSize=12;entryX=0.5;entryY=1;entryDx=0;entryDy=0;" parent="1" target="k7nBBv1MeW0qWi0kyBfL-64" edge="1">
          <mxGeometry width="50" height="50" relative="1" as="geometry">
            <mxPoint x="518" y="448" as="sourcePoint" />
            <mxPoint x="568" y="398" as="targetPoint" />
          </mxGeometry>
        </mxCell>
        <mxCell id="k7nBBv1MeW0qWi0kyBfL-83" value="" style="edgeStyle=elbowEdgeStyle;elbow=vertical;endArrow=classic;html=1;curved=0;rounded=0;endSize=8;startSize=8;fontSize=12;entryX=0.5;entryY=1;entryDx=0;entryDy=0;" parent="1" target="k7nBBv1MeW0qWi0kyBfL-62" edge="1">
          <mxGeometry width="50" height="50" relative="1" as="geometry">
            <mxPoint x="-195" y="447" as="sourcePoint" />
            <mxPoint x="-145" y="397" as="targetPoint" />
          </mxGeometry>
        </mxCell>
        <mxCell id="k7nBBv1MeW0qWi0kyBfL-84" value="" style="edgeStyle=elbowEdgeStyle;elbow=vertical;endArrow=classic;html=1;curved=0;rounded=0;endSize=8;startSize=8;fontSize=12;entryX=0.5;entryY=1;entryDx=0;entryDy=0;" parent="1" target="k7nBBv1MeW0qWi0kyBfL-62" edge="1">
          <mxGeometry width="50" height="50" relative="1" as="geometry">
            <mxPoint x="8" y="447" as="sourcePoint" />
            <mxPoint x="58" y="397" as="targetPoint" />
          </mxGeometry>
        </mxCell>
      </root>
    </mxGraphModel>
  </diagram>
</mxfile>
